<?xml version="1.0" encoding="UTF-8" standalone="no"?>
<!DOCTYPE svg PUBLIC "-//W3C//DTD SVG 1.1//EN"
 "http://www.w3.org/Graphics/SVG/1.1/DTD/svg11.dtd">
<!-- Generated by graphviz version 14.1.5 (0)
 -->
<!-- Title: roadmap Pages: 1 -->
<svg width="908pt" height="564pt"
 viewBox="0.00 0.00 908.00 564.00" xmlns="http://www.w3.org/2000/svg" xmlns:xlink="http://www.w3.org/1999/xlink">
<g id="graph0" class="graph" transform="scale(1 1) rotate(0) translate(4 560)">
<title>roadmap</title>
<polygon fill="white" stroke="none" points="-4,4 -4,-560 903.5,-560 903.5,4 -4,4"/>
<g id="clust1" class="cluster">
<title>cluster_mc</title>
<polygon fill="#f4f7f2" stroke="#f4f7f2" points="17.38,-8 17.38,-103 304.5,-103 304.5,-8 17.38,-8"/>
<text xml:space="preserve" text-anchor="middle" x="160.94" y="-85.7" font-family="sans-serif" font-size="14.00">モンテカルロ法</text>
</g>
<g id="clust2" class="cluster">
<title>cluster_pde</title>
<polygon fill="#f4f7f2" stroke="#f4f7f2" points="327.38,-385 327.38,-548 670.12,-548 670.12,-385 327.38,-385"/>
<text xml:space="preserve" text-anchor="middle" x="498.75" y="-530.7" font-family="sans-serif" font-size="14.00">偏微分方程式 (差分法)</text>
</g>
<g id="clust3" class="cluster">
<title>cluster_nbody</title>
<polygon fill="#f4f7f2" stroke="#f4f7f2" points="17.38,-333 17.38,-428 277.12,-428 277.12,-333 17.38,-333"/>
<text xml:space="preserve" text-anchor="middle" x="147.25" y="-410.7" font-family="sans-serif" font-size="14.00">N体問題</text>
</g>
<g id="clust4" class="cluster">
<title>cluster_linalg</title>
<polygon fill="#f4f7f2" stroke="#f4f7f2" points="520,-214 520,-377 891.5,-377 891.5,-214 520,-214"/>
<text xml:space="preserve" text-anchor="middle" x="705.75" y="-359.7" font-family="sans-serif" font-size="14.00">線形代数</text>
</g>
<g id="clust5" class="cluster">
<title>cluster_ml</title>
<polygon fill="#f4f7f2" stroke="#f4f7f2" points="8,-111 8,-206 431.75,-206 431.75,-111 8,-111"/>
<text xml:space="preserve" text-anchor="middle" x="219.88" y="-188.7" font-family="sans-serif" font-size="14.00">AI (ニューラルネット)</text>
</g>
<g id="clust6" class="cluster">
<title>cluster_pinn</title>
<polygon fill="#f4f7f2" stroke="#f4f7f2" points="561.62,-111 561.62,-206 664.88,-206 664.88,-111 561.62,-111"/>
<text xml:space="preserve" text-anchor="middle" x="613.25" y="-188.7" font-family="sans-serif" font-size="14.00">PINN</text>
</g>
<!-- n1 -->
<g id="node1" class="node">
<title>n1</title>
<path fill="#eef3fb" stroke="black" d="M98.38,-66C98.38,-66 37.38,-66 37.38,-66 31.38,-66 25.38,-60 25.38,-54 25.38,-54 25.38,-28 25.38,-28 25.38,-22 31.38,-16 37.38,-16 37.38,-16 98.38,-16 98.38,-16 104.38,-16 110.38,-22 110.38,-28 110.38,-28 110.38,-54 110.38,-54 110.38,-60 104.38,-66 98.38,-66"/>
<text xml:space="preserve" text-anchor="middle" x="67.88" y="-48.7" font-family="sans-serif" font-size="14.00">1 ガチャ</text>
<text xml:space="preserve" text-anchor="middle" x="67.88" y="-27.7" font-family="sans-serif" font-size="14.00">(期待値) ★</text>
</g>
<!-- n2 -->
<g id="node2" class="node">
<title>n2</title>
<path fill="#eef3fb" stroke="black" d="M284.5,-66C284.5,-66 168.75,-66 168.75,-66 162.75,-66 156.75,-60 156.75,-54 156.75,-54 156.75,-28 156.75,-28 156.75,-22 162.75,-16 168.75,-16 168.75,-16 284.5,-16 284.5,-16 290.5,-16 296.5,-22 296.5,-28 296.5,-28 296.5,-54 296.5,-54 296.5,-60 290.5,-66 284.5,-66"/>
<text xml:space="preserve" text-anchor="middle" x="226.62" y="-48.7" font-family="sans-serif" font-size="14.00">2 パーコレーション</text>
<text xml:space="preserve" text-anchor="middle" x="226.62" y="-27.7" font-family="sans-serif" font-size="14.00">(相転移) ★★★</text>
</g>
<!-- n1&#45;&gt;n2 -->
<g id="edge1" class="edge">
<title>n1&#45;&gt;n2</title>
<path fill="none" stroke="#555555" d="M110.47,-41C121.19,-41 133.1,-41 145.08,-41"/>
<polygon fill="#555555" stroke="#555555" points="145.03,-44.5 155.03,-41 145.03,-37.5 145.03,-44.5"/>
</g>
<!-- n3 -->
<g id="node3" class="node">
<title>n3</title>
<path fill="#eef3fb" stroke="black" d="M409.88,-443C409.88,-443 347.38,-443 347.38,-443 341.38,-443 335.38,-437 335.38,-431 335.38,-431 335.38,-405 335.38,-405 335.38,-399 341.38,-393 347.38,-393 347.38,-393 409.88,-393 409.88,-393 415.88,-393 421.88,-399 421.88,-405 421.88,-405 421.88,-431 421.88,-431 421.88,-437 415.88,-443 409.88,-443"/>
<text xml:space="preserve" text-anchor="middle" x="378.62" y="-425.7" font-family="sans-serif" font-size="14.00">3 2D熱伝導</text>
<text xml:space="preserve" text-anchor="middle" x="378.62" y="-404.7" font-family="sans-serif" font-size="14.00">(定常) ★★</text>
</g>
<!-- n4 -->
<g id="node4" class="node">
<title>n4</title>
<path fill="#eef3fb" stroke="black" d="M650.12,-443C650.12,-443 576.38,-443 576.38,-443 570.38,-443 564.38,-437 564.38,-431 564.38,-431 564.38,-405 564.38,-405 564.38,-399 570.38,-393 576.38,-393 576.38,-393 650.12,-393 650.12,-393 656.12,-393 662.12,-399 662.12,-405 662.12,-405 662.12,-431 662.12,-431 662.12,-437 656.12,-443 650.12,-443"/>
<text xml:space="preserve" text-anchor="middle" x="613.25" y="-425.7" font-family="sans-serif" font-size="14.00">4 波動方程式</text>
<text xml:space="preserve" text-anchor="middle" x="613.25" y="-404.7" font-family="sans-serif" font-size="14.00">★★</text>
</g>
<!-- n3&#45;&gt;n4 -->
<g id="edge2" class="edge">
<title>n3&#45;&gt;n4</title>
<path fill="none" stroke="#555555" d="M422.29,-418C458.9,-418 512.05,-418 552.82,-418"/>
<polygon fill="#555555" stroke="#555555" points="552.72,-421.5 562.72,-418 552.72,-414.5 552.72,-421.5"/>
</g>
<!-- n5 -->
<g id="node5" class="node">
<title>n5</title>
<path fill="#eef3fb" stroke="black" d="M650.12,-511C650.12,-511 576.38,-511 576.38,-511 570.38,-511 564.38,-505 564.38,-499 564.38,-499 564.38,-473 564.38,-473 564.38,-467 570.38,-461 576.38,-461 576.38,-461 650.12,-461 650.12,-461 656.12,-461 662.12,-467 662.12,-473 662.12,-473 662.12,-499 662.12,-499 662.12,-505 656.12,-511 650.12,-511"/>
<text xml:space="preserve" text-anchor="middle" x="613.25" y="-493.7" font-family="sans-serif" font-size="14.00">5 拡散方程式</text>
<text xml:space="preserve" text-anchor="middle" x="613.25" y="-472.7" font-family="sans-serif" font-size="14.00">★★</text>
</g>
<!-- n3&#45;&gt;n5 -->
<g id="edge3" class="edge">
<title>n3&#45;&gt;n5</title>
<path fill="none" stroke="#555555" d="M422.29,-430.47C459.06,-441.22 512.5,-456.84 553.34,-468.78"/>
<polygon fill="#555555" stroke="#555555" points="552.2,-472.09 562.78,-471.54 554.17,-465.37 552.2,-472.09"/>
</g>
<!-- n8 -->
<g id="node8" class="node">
<title>n8</title>
<path fill="#eef3fb" stroke="black" d="M686.5,-340C686.5,-340 540,-340 540,-340 534,-340 528,-334 528,-328 528,-328 528,-302 528,-302 528,-296 534,-290 540,-290 540,-290 686.5,-290 686.5,-290 692.5,-290 698.5,-296 698.5,-302 698.5,-302 698.5,-328 698.5,-328 698.5,-334 692.5,-340 686.5,-340"/>
<text xml:space="preserve" text-anchor="middle" x="613.25" y="-322.7" font-family="sans-serif" font-size="14.00">8 CG法</text>
<text xml:space="preserve" text-anchor="middle" x="613.25" y="-301.7" font-family="sans-serif" font-size="14.00">(連立一次方程式) ★★★</text>
</g>
<!-- n3&#45;&gt;n8 -->
<g id="edge4" class="edge">
<title>n3&#45;&gt;n8</title>
<path fill="none" stroke="#555555" d="M422.29,-399.11C456.49,-383.97 505.11,-362.44 544.6,-344.95"/>
<polygon fill="#555555" stroke="#555555" points="545.84,-348.23 553.57,-340.98 543.01,-341.83 545.84,-348.23"/>
</g>
<!-- n14 -->
<g id="node14" class="node">
<title>n14</title>
<path fill="#eef3fb" stroke="black" d="M644.88,-169C644.88,-169 581.62,-169 581.62,-169 575.62,-169 569.62,-163 569.62,-157 569.62,-157 569.62,-131 569.62,-131 569.62,-125 575.62,-119 581.62,-119 581.62,-119 644.88,-119 644.88,-119 650.88,-119 656.88,-125 656.88,-131 656.88,-131 656.88,-157 656.88,-157 656.88,-163 650.88,-169 644.88,-169"/>
<text xml:space="preserve" text-anchor="middle" x="613.25" y="-151.7" font-family="sans-serif" font-size="14.00">14 PINN</text>
<text xml:space="preserve" text-anchor="middle" x="613.25" y="-130.7" font-family="sans-serif" font-size="14.00">★★★★★</text>
</g>
<!-- n3&#45;&gt;n14 -->
<g id="edge11" class="edge">
<title>n3&#45;&gt;n14</title>
<path fill="none" stroke="#555555" stroke-dasharray="5,2" d="M392.88,-392.54C415.25,-351.11 463.64,-267.92 520,-210 532.17,-197.5 546.96,-185.74 561.11,-175.72"/>
<polygon fill="#555555" stroke="#555555" points="562.79,-178.81 569.03,-170.25 558.81,-173.05 562.79,-178.81"/>
<text xml:space="preserve" text-anchor="middle" x="475.88" y="-314.52" font-family="Times,serif" font-size="14.00">PDEの理解</text>
</g>
<!-- n6 -->
<g id="node6" class="node">
<title>n6</title>
<path fill="#eef3fb" stroke="black" d="M98.38,-391C98.38,-391 37.38,-391 37.38,-391 31.38,-391 25.38,-385 25.38,-379 25.38,-379 25.38,-353 25.38,-353 25.38,-347 31.38,-341 37.38,-341 37.38,-341 98.38,-341 98.38,-341 104.38,-341 110.38,-347 110.38,-353 110.38,-353 110.38,-379 110.38,-379 110.38,-385 104.38,-391 98.38,-391"/>
<text xml:space="preserve" text-anchor="middle" x="67.88" y="-373.7" font-family="sans-serif" font-size="14.00">6 N体</text>
<text xml:space="preserve" text-anchor="middle" x="67.88" y="-352.7" font-family="sans-serif" font-size="14.00">(重力) ★★</text>
</g>
<!-- n7 -->
<g id="node7" class="node">
<title>n7</title>
<path fill="#eef3fb" stroke="black" d="M257.12,-391C257.12,-391 196.12,-391 196.12,-391 190.12,-391 184.12,-385 184.12,-379 184.12,-379 184.12,-353 184.12,-353 184.12,-347 190.12,-341 196.12,-341 196.12,-341 257.12,-341 257.12,-341 263.12,-341 269.12,-347 269.12,-353 269.12,-353 269.12,-379 269.12,-379 269.12,-385 263.12,-391 257.12,-391"/>
<text xml:space="preserve" text-anchor="middle" x="226.62" y="-373.7" font-family="sans-serif" font-size="14.00">7 Boids</text>
<text xml:space="preserve" text-anchor="middle" x="226.62" y="-352.7" font-family="sans-serif" font-size="14.00">(群れ) ★★</text>
</g>
<!-- n6&#45;&gt;n7 -->
<g id="edge7" class="edge">
<title>n6&#45;&gt;n7</title>
<path fill="none" stroke="#555555" d="M110.47,-366C129.51,-366 152.3,-366 172.56,-366"/>
<polygon fill="#555555" stroke="#555555" points="172.32,-369.5 182.32,-366 172.32,-362.5 172.32,-369.5"/>
</g>
<!-- n9 -->
<g id="node9" class="node">
<title>n9</title>
<path fill="#eef3fb" stroke="black" d="M860.62,-272C860.62,-272 758.38,-272 758.38,-272 752.38,-272 746.38,-266 746.38,-260 746.38,-260 746.38,-234 746.38,-234 746.38,-228 752.38,-222 758.38,-222 758.38,-222 860.62,-222 860.62,-222 866.62,-222 872.62,-228 872.62,-234 872.62,-234 872.62,-260 872.62,-260 872.62,-266 866.62,-272 860.62,-272"/>
<text xml:space="preserve" text-anchor="middle" x="809.5" y="-254.7" font-family="sans-serif" font-size="14.00">9 固有振動モード</text>
<text xml:space="preserve" text-anchor="middle" x="809.5" y="-233.7" font-family="sans-serif" font-size="14.00">(べき乗法) ★★</text>
</g>
<!-- n8&#45;&gt;n9 -->
<g id="edge5" class="edge">
<title>n8&#45;&gt;n9</title>
<path fill="none" stroke="#555555" d="M686.86,-289.58C702.71,-284.03 719.48,-278.16 735.35,-272.61"/>
<polygon fill="#555555" stroke="#555555" points="736.46,-275.93 744.74,-269.32 734.15,-269.32 736.46,-275.93"/>
</g>
<!-- n10 -->
<g id="node10" class="node">
<title>n10</title>
<path fill="#eef3fb" stroke="black" d="M871.5,-340C871.5,-340 747.5,-340 747.5,-340 741.5,-340 735.5,-334 735.5,-328 735.5,-328 735.5,-302 735.5,-302 735.5,-296 741.5,-290 747.5,-290 747.5,-290 871.5,-290 871.5,-290 877.5,-290 883.5,-296 883.5,-302 883.5,-302 883.5,-328 883.5,-328 883.5,-334 877.5,-340 871.5,-340"/>
<text xml:space="preserve" text-anchor="middle" x="809.5" y="-322.7" font-family="sans-serif" font-size="14.00">10 すごろく定常分布</text>
<text xml:space="preserve" text-anchor="middle" x="809.5" y="-301.7" font-family="sans-serif" font-size="14.00">(べき乗法) ★★</text>
</g>
<!-- n8&#45;&gt;n10 -->
<g id="edge6" class="edge">
<title>n8&#45;&gt;n10</title>
<path fill="none" stroke="#555555" d="M698.89,-315C707.09,-315 715.41,-315 723.61,-315"/>
<polygon fill="#555555" stroke="#555555" points="723.59,-318.5 733.59,-315 723.59,-311.5 723.59,-318.5"/>
</g>
<!-- n11 -->
<g id="node11" class="node">
<title>n11</title>
<path fill="#eef3fb" stroke="black" d="M107.75,-169C107.75,-169 28,-169 28,-169 22,-169 16,-163 16,-157 16,-157 16,-131 16,-131 16,-125 22,-119 28,-119 28,-119 107.75,-119 107.75,-119 113.75,-119 119.75,-125 119.75,-131 119.75,-131 119.75,-157 119.75,-157 119.75,-163 113.75,-169 107.75,-169"/>
<text xml:space="preserve" text-anchor="middle" x="67.88" y="-151.7" font-family="sans-serif" font-size="14.00">11 MNIST推論</text>
<text xml:space="preserve" text-anchor="middle" x="67.88" y="-130.7" font-family="sans-serif" font-size="14.00">★★</text>
</g>
<!-- n12 -->
<g id="node12" class="node">
<title>n12</title>
<path fill="#eef3fb" stroke="black" d="M267.25,-169C267.25,-169 186,-169 186,-169 180,-169 174,-163 174,-157 174,-157 174,-131 174,-131 174,-125 180,-119 186,-119 186,-119 267.25,-119 267.25,-119 273.25,-119 279.25,-125 279.25,-131 279.25,-131 279.25,-157 279.25,-157 279.25,-163 273.25,-169 267.25,-169"/>
<text xml:space="preserve" text-anchor="middle" x="226.62" y="-151.7" font-family="sans-serif" font-size="14.00">12 回帰の学習</text>
<text xml:space="preserve" text-anchor="middle" x="226.62" y="-130.7" font-family="sans-serif" font-size="14.00">★★</text>
</g>
<!-- n11&#45;&gt;n12 -->
<g id="edge8" class="edge">
<title>n11&#45;&gt;n12</title>
<path fill="none" stroke="#555555" d="M120.2,-144C133.73,-144 148.48,-144 162.55,-144"/>
<polygon fill="#555555" stroke="#555555" points="162.13,-147.5 172.13,-144 162.13,-140.5 162.13,-147.5"/>
</g>
<!-- n13 -->
<g id="node13" class="node">
<title>n13</title>
<path fill="#eef3fb" stroke="black" d="M411.75,-169C411.75,-169 345.5,-169 345.5,-169 339.5,-169 333.5,-163 333.5,-157 333.5,-157 333.5,-131 333.5,-131 333.5,-125 339.5,-119 345.5,-119 345.5,-119 411.75,-119 411.75,-119 417.75,-119 423.75,-125 423.75,-131 423.75,-131 423.75,-157 423.75,-157 423.75,-163 417.75,-169 411.75,-169"/>
<text xml:space="preserve" text-anchor="middle" x="378.62" y="-151.7" font-family="sans-serif" font-size="14.00">13 MLP学習</text>
<text xml:space="preserve" text-anchor="middle" x="378.62" y="-130.7" font-family="sans-serif" font-size="14.00">★★★</text>
</g>
<!-- n12&#45;&gt;n13 -->
<g id="edge9" class="edge">
<title>n12&#45;&gt;n13</title>
<path fill="none" stroke="#555555" d="M279.67,-144C293.28,-144 308.02,-144 321.83,-144"/>
<polygon fill="#555555" stroke="#555555" points="321.64,-147.5 331.64,-144 321.64,-140.5 321.64,-147.5"/>
</g>
<!-- n13&#45;&gt;n14 -->
<g id="edge10" class="edge">
<title>n13&#45;&gt;n14</title>
<path fill="none" stroke="#555555" d="M424.2,-144C462.35,-144 517.38,-144 558.06,-144"/>
<polygon fill="#555555" stroke="#555555" points="557.88,-147.5 567.88,-144 557.88,-140.5 557.88,-147.5"/>
</g>
</g>
</svg>
