<?xml version="1.0" encoding="UTF-8" standalone="no"?>
<!DOCTYPE svg PUBLIC "-//W3C//DTD SVG 1.1//EN"
 "http://www.w3.org/Graphics/SVG/1.1/DTD/svg11.dtd">
<!-- Generated by graphviz version 14.1.5 (0)
 -->
<!-- Title: roadmap Pages: 1 -->
<svg width="960pt" height="575pt"
 viewBox="0.00 0.00 960.00 575.00" xmlns="http://www.w3.org/2000/svg" xmlns:xlink="http://www.w3.org/1999/xlink">
<g id="graph0" class="graph" transform="scale(1 1) rotate(0) translate(4 571)">
<title>roadmap</title>
<polygon fill="white" stroke="none" points="-4,4 -4,-571 956.25,-571 956.25,4 -4,4"/>
<g id="clust1" class="cluster">
<title>cluster_mc</title>
<polygon fill="#f4f7f2" stroke="#f4f7f2" points="17.38,-8 17.38,-103 304.5,-103 304.5,-8 17.38,-8"/>
<text xml:space="preserve" text-anchor="middle" x="160.94" y="-85.7" font-family="sans-serif" font-size="14.00">モンテカルロ法</text>
</g>
<g id="clust2" class="cluster">
<title>cluster_pde</title>
<polygon fill="#f4f7f2" stroke="#f4f7f2" points="327.38,-396 327.38,-559 692,-559 692,-396 327.38,-396"/>
<text xml:space="preserve" text-anchor="middle" x="509.69" y="-541.7" font-family="sans-serif" font-size="14.00">偏微分方程式 (差分法)</text>
</g>
<g id="clust3" class="cluster">
<title>cluster_nbody</title>
<polygon fill="#f4f7f2" stroke="#f4f7f2" points="17.38,-339 17.38,-434 277.12,-434 277.12,-339 17.38,-339"/>
<text xml:space="preserve" text-anchor="middle" x="147.25" y="-416.7" font-family="sans-serif" font-size="14.00">N体問題</text>
</g>
<g id="clust4" class="cluster">
<title>cluster_linalg</title>
<polygon fill="#f4f7f2" stroke="#f4f7f2" points="541.88,-225 541.88,-388 944.25,-388 944.25,-225 541.88,-225"/>
<text xml:space="preserve" text-anchor="middle" x="743.06" y="-370.7" font-family="sans-serif" font-size="14.00">線形代数</text>
</g>
<g id="clust5" class="cluster">
<title>cluster_ml</title>
<polygon fill="#f4f7f2" stroke="#f4f7f2" points="8,-111 8,-206 431.75,-206 431.75,-111 8,-111"/>
<text xml:space="preserve" text-anchor="middle" x="219.88" y="-188.7" font-family="sans-serif" font-size="14.00">AI (ニューラルネット)</text>
</g>
<g id="clust6" class="cluster">
<title>cluster_pinn</title>
<polygon fill="#f4f7f2" stroke="#f4f7f2" points="520,-100 520,-217 751.25,-217 751.25,-100 520,-100"/>
<text xml:space="preserve" text-anchor="middle" x="635.62" y="-199.7" font-family="sans-serif" font-size="14.00">PINN (物理情報ニューラルネット)</text>
</g>
<!-- n1 -->
<g id="node1" class="node">
<title>n1</title>
<path fill="#eef3fb" stroke="black" d="M98.38,-66C98.38,-66 37.38,-66 37.38,-66 31.38,-66 25.38,-60 25.38,-54 25.38,-54 25.38,-28 25.38,-28 25.38,-22 31.38,-16 37.38,-16 37.38,-16 98.38,-16 98.38,-16 104.38,-16 110.38,-22 110.38,-28 110.38,-28 110.38,-54 110.38,-54 110.38,-60 104.38,-66 98.38,-66"/>
<text xml:space="preserve" text-anchor="middle" x="67.88" y="-48.7" font-family="sans-serif" font-size="14.00">1 ガチャ</text>
<text xml:space="preserve" text-anchor="middle" x="67.88" y="-27.7" font-family="sans-serif" font-size="14.00">(期待値) ★</text>
</g>
<!-- n2 -->
<g id="node2" class="node">
<title>n2</title>
<path fill="#eef3fb" stroke="black" d="M284.5,-66C284.5,-66 168.75,-66 168.75,-66 162.75,-66 156.75,-60 156.75,-54 156.75,-54 156.75,-28 156.75,-28 156.75,-22 162.75,-16 168.75,-16 168.75,-16 284.5,-16 284.5,-16 290.5,-16 296.5,-22 296.5,-28 296.5,-28 296.5,-54 296.5,-54 296.5,-60 290.5,-66 284.5,-66"/>
<text xml:space="preserve" text-anchor="middle" x="226.62" y="-48.7" font-family="sans-serif" font-size="14.00">2 パーコレーション</text>
<text xml:space="preserve" text-anchor="middle" x="226.62" y="-27.7" font-family="sans-serif" font-size="14.00">(相転移) ★★★</text>
</g>
<!-- n1&#45;&gt;n2 -->
<g id="edge1" class="edge">
<title>n1&#45;&gt;n2</title>
<path fill="none" stroke="#555555" d="M110.47,-41C121.19,-41 133.1,-41 145.08,-41"/>
<polygon fill="#555555" stroke="#555555" points="145.03,-44.5 155.03,-41 145.03,-37.5 145.03,-44.5"/>
</g>
<!-- n3 -->
<g id="node3" class="node">
<title>n3</title>
<path fill="#eef3fb" stroke="black" d="M409.88,-454C409.88,-454 347.38,-454 347.38,-454 341.38,-454 335.38,-448 335.38,-442 335.38,-442 335.38,-416 335.38,-416 335.38,-410 341.38,-404 347.38,-404 347.38,-404 409.88,-404 409.88,-404 415.88,-404 421.88,-410 421.88,-416 421.88,-416 421.88,-442 421.88,-442 421.88,-448 415.88,-454 409.88,-454"/>
<text xml:space="preserve" text-anchor="middle" x="378.62" y="-436.7" font-family="sans-serif" font-size="14.00">3 2D熱伝導</text>
<text xml:space="preserve" text-anchor="middle" x="378.62" y="-415.7" font-family="sans-serif" font-size="14.00">(定常) ★★</text>
</g>
<!-- n4 -->
<g id="node4" class="node">
<title>n4</title>
<path fill="#eef3fb" stroke="black" d="M672,-454C672,-454 598.25,-454 598.25,-454 592.25,-454 586.25,-448 586.25,-442 586.25,-442 586.25,-416 586.25,-416 586.25,-410 592.25,-404 598.25,-404 598.25,-404 672,-404 672,-404 678,-404 684,-410 684,-416 684,-416 684,-442 684,-442 684,-448 678,-454 672,-454"/>
<text xml:space="preserve" text-anchor="middle" x="635.12" y="-436.7" font-family="sans-serif" font-size="14.00">4 波動方程式</text>
<text xml:space="preserve" text-anchor="middle" x="635.12" y="-415.7" font-family="sans-serif" font-size="14.00">★★</text>
</g>
<!-- n3&#45;&gt;n4 -->
<g id="edge2" class="edge">
<title>n3&#45;&gt;n4</title>
<path fill="none" stroke="#555555" d="M422.22,-429C463.97,-429 527.95,-429 574.69,-429"/>
<polygon fill="#555555" stroke="#555555" points="574.67,-432.5 584.67,-429 574.67,-425.5 574.67,-432.5"/>
</g>
<!-- n5 -->
<g id="node5" class="node">
<title>n5</title>
<path fill="#eef3fb" stroke="black" d="M672,-522C672,-522 598.25,-522 598.25,-522 592.25,-522 586.25,-516 586.25,-510 586.25,-510 586.25,-484 586.25,-484 586.25,-478 592.25,-472 598.25,-472 598.25,-472 672,-472 672,-472 678,-472 684,-478 684,-484 684,-484 684,-510 684,-510 684,-516 678,-522 672,-522"/>
<text xml:space="preserve" text-anchor="middle" x="635.12" y="-504.7" font-family="sans-serif" font-size="14.00">5 拡散方程式</text>
<text xml:space="preserve" text-anchor="middle" x="635.12" y="-483.7" font-family="sans-serif" font-size="14.00">★★</text>
</g>
<!-- n3&#45;&gt;n5 -->
<g id="edge3" class="edge">
<title>n3&#45;&gt;n5</title>
<path fill="none" stroke="#555555" d="M422.22,-440.38C464.14,-451.58 528.5,-468.78 575.29,-481.28"/>
<polygon fill="#555555" stroke="#555555" points="574.15,-484.6 584.72,-483.8 575.96,-477.84 574.15,-484.6"/>
</g>
<!-- n8 -->
<g id="node8" class="node">
<title>n8</title>
<path fill="#eef3fb" stroke="black" d="M708.38,-351C708.38,-351 561.88,-351 561.88,-351 555.88,-351 549.88,-345 549.88,-339 549.88,-339 549.88,-313 549.88,-313 549.88,-307 555.88,-301 561.88,-301 561.88,-301 708.38,-301 708.38,-301 714.38,-301 720.38,-307 720.38,-313 720.38,-313 720.38,-339 720.38,-339 720.38,-345 714.38,-351 708.38,-351"/>
<text xml:space="preserve" text-anchor="middle" x="635.12" y="-333.7" font-family="sans-serif" font-size="14.00">8 CG法</text>
<text xml:space="preserve" text-anchor="middle" x="635.12" y="-312.7" font-family="sans-serif" font-size="14.00">(連立一次方程式) ★★★</text>
</g>
<!-- n3&#45;&gt;n8 -->
<g id="edge4" class="edge">
<title>n3&#45;&gt;n8</title>
<path fill="none" stroke="#555555" d="M422.22,-411.76C459.95,-396.49 515.85,-373.87 560.76,-355.69"/>
<polygon fill="#555555" stroke="#555555" points="561.98,-358.97 569.93,-351.98 559.35,-352.49 561.98,-358.97"/>
</g>
<!-- n14 -->
<g id="node14" class="node">
<title>n14</title>
<path fill="#eef3fb" stroke="black" d="M673.88,-179.5C673.88,-179.5 596.38,-179.5 596.38,-179.5 590.38,-179.5 584.38,-173.5 584.38,-167.5 584.38,-167.5 584.38,-120.5 584.38,-120.5 584.38,-114.5 590.38,-108.5 596.38,-108.5 596.38,-108.5 673.88,-108.5 673.88,-108.5 679.88,-108.5 685.88,-114.5 685.88,-120.5 685.88,-120.5 685.88,-167.5 685.88,-167.5 685.88,-173.5 679.88,-179.5 673.88,-179.5"/>
<text xml:space="preserve" text-anchor="middle" x="635.12" y="-162.2" font-family="sans-serif" font-size="14.00">14 PINN</text>
<text xml:space="preserve" text-anchor="middle" x="635.12" y="-141.2" font-family="sans-serif" font-size="14.00">(物理情報NN)</text>
<text xml:space="preserve" text-anchor="middle" x="635.12" y="-120.2" font-family="sans-serif" font-size="14.00">★★★★★</text>
</g>
<!-- n3&#45;&gt;n14 -->
<g id="edge11" class="edge">
<title>n3&#45;&gt;n14</title>
<path fill="none" stroke="#555555" stroke-dasharray="5,2" d="M392.52,-403.7C414.56,-362.13 462.7,-278.29 520,-221 536.05,-204.95 555.89,-190.22 574.51,-178.03"/>
<polygon fill="#555555" stroke="#555555" points="576.29,-181.04 582.83,-172.71 572.52,-175.15 576.29,-181.04"/>
<text xml:space="preserve" text-anchor="middle" x="475.88" y="-325.05" font-family="Times,serif" font-size="14.00">PDEの理解</text>
</g>
<!-- n6 -->
<g id="node6" class="node">
<title>n6</title>
<path fill="#eef3fb" stroke="black" d="M98.38,-397C98.38,-397 37.38,-397 37.38,-397 31.38,-397 25.38,-391 25.38,-385 25.38,-385 25.38,-359 25.38,-359 25.38,-353 31.38,-347 37.38,-347 37.38,-347 98.38,-347 98.38,-347 104.38,-347 110.38,-353 110.38,-359 110.38,-359 110.38,-385 110.38,-385 110.38,-391 104.38,-397 98.38,-397"/>
<text xml:space="preserve" text-anchor="middle" x="67.88" y="-379.7" font-family="sans-serif" font-size="14.00">6 N体</text>
<text xml:space="preserve" text-anchor="middle" x="67.88" y="-358.7" font-family="sans-serif" font-size="14.00">(重力) ★★</text>
</g>
<!-- n7 -->
<g id="node7" class="node">
<title>n7</title>
<path fill="#eef3fb" stroke="black" d="M257.12,-397C257.12,-397 196.12,-397 196.12,-397 190.12,-397 184.12,-391 184.12,-385 184.12,-385 184.12,-359 184.12,-359 184.12,-353 190.12,-347 196.12,-347 196.12,-347 257.12,-347 257.12,-347 263.12,-347 269.12,-353 269.12,-359 269.12,-359 269.12,-385 269.12,-385 269.12,-391 263.12,-397 257.12,-397"/>
<text xml:space="preserve" text-anchor="middle" x="226.62" y="-379.7" font-family="sans-serif" font-size="14.00">7 Boids</text>
<text xml:space="preserve" text-anchor="middle" x="226.62" y="-358.7" font-family="sans-serif" font-size="14.00">(群れ) ★★</text>
</g>
<!-- n6&#45;&gt;n7 -->
<g id="edge7" class="edge">
<title>n6&#45;&gt;n7</title>
<path fill="none" stroke="#555555" d="M110.47,-372C129.51,-372 152.3,-372 172.56,-372"/>
<polygon fill="#555555" stroke="#555555" points="172.32,-375.5 182.32,-372 172.32,-368.5 172.32,-375.5"/>
</g>
<!-- n9 -->
<g id="node9" class="node">
<title>n9</title>
<path fill="#eef3fb" stroke="black" d="M913.38,-283C913.38,-283 811.12,-283 811.12,-283 805.12,-283 799.12,-277 799.12,-271 799.12,-271 799.12,-245 799.12,-245 799.12,-239 805.12,-233 811.12,-233 811.12,-233 913.38,-233 913.38,-233 919.38,-233 925.38,-239 925.38,-245 925.38,-245 925.38,-271 925.38,-271 925.38,-277 919.38,-283 913.38,-283"/>
<text xml:space="preserve" text-anchor="middle" x="862.25" y="-265.7" font-family="sans-serif" font-size="14.00">9 固有振動モード</text>
<text xml:space="preserve" text-anchor="middle" x="862.25" y="-244.7" font-family="sans-serif" font-size="14.00">(べき乗法) ★★</text>
</g>
<!-- n8&#45;&gt;n9 -->
<g id="edge5" class="edge">
<title>n8&#45;&gt;n9</title>
<path fill="none" stroke="#555555" d="M720.27,-300.58C742.5,-293.87 766.3,-286.68 787.9,-280.16"/>
<polygon fill="#555555" stroke="#555555" points="788.63,-283.59 797.19,-277.35 786.61,-276.89 788.63,-283.59"/>
</g>
<!-- n10 -->
<g id="node10" class="node">
<title>n10</title>
<path fill="#eef3fb" stroke="black" d="M924.25,-351C924.25,-351 800.25,-351 800.25,-351 794.25,-351 788.25,-345 788.25,-339 788.25,-339 788.25,-313 788.25,-313 788.25,-307 794.25,-301 800.25,-301 800.25,-301 924.25,-301 924.25,-301 930.25,-301 936.25,-307 936.25,-313 936.25,-313 936.25,-339 936.25,-339 936.25,-345 930.25,-351 924.25,-351"/>
<text xml:space="preserve" text-anchor="middle" x="862.25" y="-333.7" font-family="sans-serif" font-size="14.00">10 すごろく定常分布</text>
<text xml:space="preserve" text-anchor="middle" x="862.25" y="-312.7" font-family="sans-serif" font-size="14.00">(べき乗法) ★★</text>
</g>
<!-- n8&#45;&gt;n10 -->
<g id="edge6" class="edge">
<title>n8&#45;&gt;n10</title>
<path fill="none" stroke="#555555" d="M720.59,-326C738.8,-326 758.04,-326 776.27,-326"/>
<polygon fill="#555555" stroke="#555555" points="776.25,-329.5 786.25,-326 776.25,-322.5 776.25,-329.5"/>
</g>
<!-- n11 -->
<g id="node11" class="node">
<title>n11</title>
<path fill="#eef3fb" stroke="black" d="M107.75,-169C107.75,-169 28,-169 28,-169 22,-169 16,-163 16,-157 16,-157 16,-131 16,-131 16,-125 22,-119 28,-119 28,-119 107.75,-119 107.75,-119 113.75,-119 119.75,-125 119.75,-131 119.75,-131 119.75,-157 119.75,-157 119.75,-163 113.75,-169 107.75,-169"/>
<text xml:space="preserve" text-anchor="middle" x="67.88" y="-151.7" font-family="sans-serif" font-size="14.00">11 MNIST推論</text>
<text xml:space="preserve" text-anchor="middle" x="67.88" y="-130.7" font-family="sans-serif" font-size="14.00">★★</text>
</g>
<!-- n12 -->
<g id="node12" class="node">
<title>n12</title>
<path fill="#eef3fb" stroke="black" d="M267.25,-169C267.25,-169 186,-169 186,-169 180,-169 174,-163 174,-157 174,-157 174,-131 174,-131 174,-125 180,-119 186,-119 186,-119 267.25,-119 267.25,-119 273.25,-119 279.25,-125 279.25,-131 279.25,-131 279.25,-157 279.25,-157 279.25,-163 273.25,-169 267.25,-169"/>
<text xml:space="preserve" text-anchor="middle" x="226.62" y="-151.7" font-family="sans-serif" font-size="14.00">12 回帰の学習</text>
<text xml:space="preserve" text-anchor="middle" x="226.62" y="-130.7" font-family="sans-serif" font-size="14.00">★★</text>
</g>
<!-- n11&#45;&gt;n12 -->
<g id="edge8" class="edge">
<title>n11&#45;&gt;n12</title>
<path fill="none" stroke="#555555" d="M120.2,-144C133.73,-144 148.48,-144 162.55,-144"/>
<polygon fill="#555555" stroke="#555555" points="162.13,-147.5 172.13,-144 162.13,-140.5 162.13,-147.5"/>
</g>
<!-- n13 -->
<g id="node13" class="node">
<title>n13</title>
<path fill="#eef3fb" stroke="black" d="M411.75,-169C411.75,-169 345.5,-169 345.5,-169 339.5,-169 333.5,-163 333.5,-157 333.5,-157 333.5,-131 333.5,-131 333.5,-125 339.5,-119 345.5,-119 345.5,-119 411.75,-119 411.75,-119 417.75,-119 423.75,-125 423.75,-131 423.75,-131 423.75,-157 423.75,-157 423.75,-163 417.75,-169 411.75,-169"/>
<text xml:space="preserve" text-anchor="middle" x="378.62" y="-151.7" font-family="sans-serif" font-size="14.00">13 MLP学習</text>
<text xml:space="preserve" text-anchor="middle" x="378.62" y="-130.7" font-family="sans-serif" font-size="14.00">★★★</text>
</g>
<!-- n12&#45;&gt;n13 -->
<g id="edge9" class="edge">
<title>n12&#45;&gt;n13</title>
<path fill="none" stroke="#555555" d="M279.67,-144C293.28,-144 308.02,-144 321.83,-144"/>
<polygon fill="#555555" stroke="#555555" points="321.64,-147.5 331.64,-144 321.64,-140.5 321.64,-147.5"/>
</g>
<!-- n13&#45;&gt;n14 -->
<g id="edge10" class="edge">
<title>n13&#45;&gt;n14</title>
<path fill="none" stroke="#555555" d="M424.25,-144C465.38,-144 526.81,-144 572.6,-144"/>
<polygon fill="#555555" stroke="#555555" points="572.36,-147.5 582.36,-144 572.36,-140.5 572.36,-147.5"/>
</g>
</g>
</svg>
